<svg width="126" height="57" viewBox="0 0 126 57" fill="none" xmlns="http://www.w3.org/2000/svg">
<path d="M22.9064 26.0718H17.8414L16.9465 28.3949H12.3766L18.2032 15.0661H22.6208L28.4473 28.3949H23.8013L22.9064 26.0718ZM21.6687 22.8348L20.3739 19.4836L19.0791 22.8348H21.6687ZM33.6582 18.4554V20.7403H39.2182V24.1296H33.6582V28.3949H29.1645V15.0661H39.9989V18.4554H33.6582ZM47.1309 25.0436H45.9122V28.3949H41.4185V15.0661H47.8354C49.0667 15.0661 50.1394 15.2692 51.0533 15.6754C51.9673 16.0816 52.6718 16.6655 53.1669 17.4272C53.662 18.1888 53.9095 19.0774 53.9095 20.0929C53.9095 21.045 53.6937 21.8764 53.2621 22.5873C52.8305 23.2982 52.2085 23.8631 51.3961 24.282L54.1951 28.3949H49.3968L47.1309 25.0436ZM49.3777 20.0929C49.3777 19.5979 49.2254 19.217 48.9207 18.9505C48.6161 18.6712 48.1591 18.5315 47.5498 18.5315H45.9122V21.6543H47.5498C48.1591 21.6543 48.6161 21.521 48.9207 21.2544C49.2254 20.9752 49.3777 20.588 49.3777 20.0929ZM62.5945 28.6995C61.1601 28.6995 59.8716 28.4012 58.7291 27.8046C57.5867 27.208 56.6917 26.3828 56.0443 25.3292C55.3969 24.2629 55.0733 23.0633 55.0733 21.7305C55.0733 20.3976 55.3969 19.2043 56.0443 18.1507C56.6917 17.0844 57.5867 16.253 58.7291 15.6563C59.8716 15.0597 61.1601 14.7614 62.5945 14.7614C64.0289 14.7614 65.3174 15.0597 66.4599 15.6563C67.6023 16.253 68.4973 17.0844 69.1447 18.1507C69.7921 19.2043 70.1158 20.3976 70.1158 21.7305C70.1158 23.0633 69.7921 24.2629 69.1447 25.3292C68.4973 26.3828 67.6023 27.208 66.4599 27.8046C65.3174 28.4012 64.0289 28.6995 62.5945 28.6995ZM62.5945 25.0627C63.153 25.0627 63.6545 24.9294 64.0987 24.6628C64.5557 24.3835 64.9175 23.9964 65.1841 23.5013C65.4507 22.9935 65.584 22.4032 65.584 21.7305C65.584 21.0577 65.4507 20.4737 65.1841 19.9787C64.9175 19.4709 64.5557 19.0837 64.0987 18.8172C63.6545 18.5379 63.153 18.3983 62.5945 18.3983C62.036 18.3983 61.5282 18.5379 61.0712 18.8172C60.6269 19.0837 60.2715 19.4709 60.0049 19.9787C59.7383 20.4737 59.605 21.0577 59.605 21.7305C59.605 22.4032 59.7383 22.9935 60.0049 23.5013C60.2715 23.9964 60.6269 24.3835 61.0712 24.6628C61.5282 24.9294 62.036 25.0627 62.5945 25.0627Z" fill="#B50C0C"/>
<path d="M10.5298 44.1608H5.46484L4.56991 46.4838H3.47662e-05L5.82662 33.155H10.2442L16.0708 46.4838H11.4247L10.5298 44.1608ZM9.29211 40.9238L7.99731 37.5726L6.70252 40.9238H9.29211ZM29.9263 33.155V46.4838H26.2323L21.1674 40.4288V46.4838H16.7879V33.155H20.4819L25.5468 39.2101V33.155H29.9263ZM40.9075 39.4577H44.811V45.0938C44.0239 45.6397 43.11 46.0586 42.069 46.3505C41.0281 46.6425 40.0063 46.7885 39.0034 46.7885C37.5817 46.7885 36.3059 46.4965 35.1762 45.9126C34.0464 45.316 33.1578 44.4909 32.5104 43.4373C31.8757 42.371 31.5583 41.165 31.5583 39.8194C31.5583 38.4739 31.8757 37.2743 32.5104 36.2207C33.1578 35.1544 34.0527 34.3292 35.1952 33.7453C36.3504 33.1487 37.6515 32.8504 39.0986 32.8504C40.4061 32.8504 41.574 33.0725 42.6022 33.5168C43.6431 33.9484 44.5063 34.5831 45.1918 35.4209L42.3166 37.9534C41.4788 36.976 40.4823 36.4872 39.3271 36.4872C38.337 36.4872 37.55 36.7856 36.966 37.3822C36.3821 37.9788 36.0901 38.7912 36.0901 39.8194C36.0901 40.8223 36.3757 41.6283 36.947 42.2377C37.5309 42.847 38.3053 43.1516 39.27 43.1516C39.8412 43.1516 40.3871 43.0437 40.9075 42.8279V39.4577ZM46.7256 33.155H51.2194V42.9993H57.2364V46.4838H46.7256V33.155ZM69.5595 43.0945V46.4838H58.4776V33.155H69.312V36.5444H62.8951V38.1057H68.5313V41.3427H62.8951V43.0945H69.5595Z" fill="black"/>
<circle cx="106.051" cy="27.3745" r="18.0375" stroke="#B50C0C" stroke-width="2.54647"/>
<path d="M110.505 0.00585938C99.9608 7.68366 93.1058 20.1232 93.1058 34.165C93.1058 42.088 95.2896 49.5003 99.0853 55.8359L99.0482 56.0225L76.1302 21.2207L110.507 0L110.505 0.00585938Z" fill="#15613D"/>
</svg>
